<mxfile host="app.diagrams.net" modified="2023-11-30T09:53:32.781Z" agent="Mozilla/5.0 (Windows NT 10.0; Win64; x64; rv:120.0) Gecko/20100101 Firefox/120.0" version="22.1.3" etag="Ye6OxPy4tA8y4jhEUTLJ" type="github">
  <diagram name="Seite-1" id="QL2GSqpA_WiwcAJyHZMA">
    <mxGraphModel>
      <root>
        <mxCell id="0" />
        <mxCell id="1" parent="0" />
      </root>
    </mxGraphModel>
  </diagram>
</mxfile>
